{"title":"Young Hercules The Complete Series All 50 Episodes DVD RIP","uid":8434172,"size":9595572878,"categoryP":"video","categoryS":"tv_shows","magnet":"?xt=urn:btih:f5dfc46f1a7bdc6593e9c3596710612aff07bf18&amp;dn=Young+Hercules+The+Complete+Series+All+50+Episodes+DVD+RIP&amp;tr=udp%3A%2F%2Ftracker.openbittorrent.com%3A80&amp;tr=udp%3A%2F%2Fopen.demonii.com%3A1337&amp;tr=udp%3A%2F%2Ftracker.coppersurfer.tk%3A6969&amp;tr=udp%3A%2F%2Fexodus.desync.com%3A6969","seeders":1,"leechers":0,"uploader":"jmanwf","files":-1,"time":1367580620,"description":" &lt;a href=&quot;http://s19.postimg.org/ommer75g3/image.jpg&quot; rel=&quot;nofollow&quot; target=&quot;_NEW&quot;&gt;http://s19.postimg.org/ommer75g3/image.jpg&lt;/a&gt;\n &lt;a href=&quot;\nhttp://s19.postimg.org/sx12msaj7/image.jpg&quot; rel=&quot;nofollow&quot; target=&quot;_NEW&quot;&gt;\nhttp://s19.postimg.org/sx12msaj7/image.jpg&lt;/a&gt;\n &lt;a href=&quot;\nhttp://s19.postimg.org/vse5tnej7/image.jpg&quot; rel=&quot;nofollow&quot; target=&quot;_NEW&quot;&gt;\nhttp://s19.postimg.org/vse5tnej7/image.jpg&lt;/a&gt;\n\nFormat                                   : MPEG-4\nFormat profile                           : Base Media\nCodec ID                                 : isom\nFile size                                : 154 MiB\nDuration                                 : 21mn 25s\nOverall bit rate                         : 1 003 Kbps\nWriting application                      : Lavf54.59.106\n\nVideo\nID                                       : 1\nFormat                                   : AVC\nFormat/Info                              : Advanced Video Codec\nFormat profile                           : &lt;a class=&quot;__cf_email__&quot; href=&quot;/cdn-cgi/l/email-protection&quot; data-cfemail=&quot;7c34151b143c304f524c&quot;&gt;[email&amp;#160;protected]&lt;/a&gt;&lt;script data-cfhash='f9e31' type=&quot;text/javascript&quot;&gt;\n/* &lt;![CDATA[ */!function(){try{var t=&quot;currentScript&quot;in document?document.currentScript:function(){for(var t=document.getElementsByTagName(&quot;script&quot;),e=t.length;e--;)if(t[e].getAttribute(&quot;data-cfhash&quot;))return t[e]}();if(t&amp;&amp;t.previousSibling){var e,r,n,i,c=t.previousSibling,a=c.getAttribute(&quot;data-cfemail&quot;);if(a){for(e=&quot;&quot;,r=parseInt(a.substr(0,2),16),n=2;a.length-n;n+=2)i=parseInt(a.substr(n,2),16)^r,e+=String.fromCharCode(i);e=document.createTextNode(e),c.parentNode.replaceChild(e,c)}t.parentNode.removeChild(t);}}catch(u){}}()/* ]]&gt; */&lt;/script&gt;\nFormat settings, CABAC                   : Yes\nFormat settings, ReFrames                : 5 frames\nCodec ID                                 : avc1\nCodec ID/Info                            : Advanced Video Coding\nDuration                                 : 21mn 25s\nBit rate                                 : 931 Kbps\nWidth                                    : 640 pixels\nHeight                                   : 480 pixels\nDisplay aspect ratio                     : 4:3\nFrame rate mode                          : Variable\nFrame rate                               : 29.970 fps\nMinimum frame rate                       : 2.469 fps\nMaximum frame rate                       : 500.000 fps\nColor space                              : YUV\nChroma subsampling                       : 4:2:0\nBit depth                                : 8 bits\nScan type                                : Progressive\nBits/(Pixel*Frame)                       : 0.101\nStream size                              : 143 MiB (93%)\n\nAudio\nID                                       : 2\nFormat                                   : AAC\nFormat/Info                              : Advanced Audio Codec\nFormat profile                           : HE-AAC / LC\nCodec ID                                 : 40\nDuration                                 : 21mn 25s\nBit rate mode                            : Constant\nBit rate                                 : 64.0 Kbps\nChannel(s)                               : 2 channels\nChannel positions                        : Front: L R\nSampling rate                            : 44.1 KHz / 22.05 KHz\nCompression mode                         : Lossy\nStream size                              : 9.81 MiB (6%)\n\n\nStoryline\n\nThis show tells the tale of Hercules adventures as a teenager when he learned his warrior skills at a training academy. Together with his friends Iolaus and Jason, he fights his brother Ares, other gods such as Bacchus, and various bandits and mythical beasts. \n","torrent":{"xt":"urn:btih:f5dfc46f1a7bdc6593e9c3596710612aff07bf18","amp;dn":"Young+Hercules+The+Complete+Series+All+50+Episodes+DVD+RIP","amp;tr":["udp%3A%2F%2Ftracker.openbittorrent.com%3A80","udp%3A%2F%2Fopen.demonii.com%3A1337","udp%3A%2F%2Ftracker.coppersurfer.tk%3A6969","udp%3A%2F%2Fexodus.desync.com%3A6969"],"infoHash":"f5dfc46f1a7bdc6593e9c3596710612aff07bf18","infoHashBuffer":{"type":"Buffer","data":[245,223,196,111,26,123,220,101,147,233,195,89,103,16,97,42,255,7,191,24]},"announce":[],"urlList":[]}}